<?xml version="1.0" encoding="utf-8"?>
<svg xmlns="http://www.w3.org/2000/svg" viewBox="0 0 500 500">
  <defs>
    <linearGradient gradientUnits="userSpaceOnUse" x1="250" y1="239.724" x2="250" y2="261.326" id="gradient-1" gradientTransform="matrix(1.402168, 0, 0, 1.402168, -101.018425, 35.615349)">
      <stop offset="0" style="stop-opacity: 0; stop-color: rgb(98, 114, 129);"/>
      <stop offset="1" style="stop-color: rgb(71, 83, 94);"/>
    </linearGradient>
    <linearGradient gradientUnits="userSpaceOnUse" x1="250" y1="247.889" x2="250" y2="265.037" id="gradient-0" gradientTransform="matrix(0.835256, 0, 0, 0.835256, 40.710373, 275.640549)">
      <stop offset="0" style="stop-color: rgb(98, 114, 129);"/>
      <stop offset="1" style="stop-color: rgb(44, 52, 60);"/>
    </linearGradient>
  </defs>
  <path d="M 484.041 469.796 C 512.283 487.943 498.164 497.014 441.68 497.014 L 57.364 497.014 C 0.884 497.014 -13.235 487.943 15.008 469.796 L 104.721 412.159 L 104.721 414.658 L 104.851 414.658 C 104.88 414.961 104.915 415.263 104.954 415.568 C 106.315 425.303 115.336 434.34 129.915 441.926 C 134.468 444.296 139.614 446.553 145.331 448.666 C 149.978 450.378 154.971 451.987 160.28 453.471 C 164.08 454.53 168 455.515 172.028 456.43 C 188.631 460.192 207.53 462.8 227.801 463.907 C 235.045 464.313 242.319 464.516 249.569 464.526 C 263.801 464.546 278.132 463.828 292.077 462.329 C 308.805 460.533 324.67 457.652 338.783 453.758 C 344.084 452.299 349.056 450.715 353.689 449.016 C 369.341 443.291 380.665 436.482 387.3 429.178 C 388.434 427.945 389.418 426.694 390.284 425.422 C 392.699 421.863 394 418.261 394.233 414.658 L 394.316 414.658 L 394.316 412.155 L 484.041 469.796 Z" style="fill: url(&quot;#gradient-0&quot;);"/>
  <path d="M 390.283 439.546 C 389.421 440.817 388.433 442.069 387.303 443.302 C 380.664 450.605 369.345 457.415 353.693 463.14 C 349.061 464.839 344.083 466.422 338.788 467.882 C 324.668 471.776 308.809 474.657 292.076 476.452 C 278.131 477.952 263.805 478.669 249.573 478.65 C 242.324 478.639 235.044 478.437 227.804 478.031 C 207.529 476.922 188.63 474.314 172.027 470.553 C 167.999 469.639 164.079 468.653 160.283 467.595 C 154.974 466.11 149.981 464.501 145.334 462.789 C 139.613 460.676 134.467 458.419 129.919 456.05 C 115.335 448.463 106.319 439.427 104.957 429.692 C 104.918 429.386 104.879 429.084 104.854 428.782 L 104.727 428.782 L 104.727 371.749 L 394.322 371.749 L 394.322 428.782 L 394.237 428.782 C 394.005 432.384 392.698 435.987 390.283 439.546 Z" style="fill-rule: nonzero; fill: url(&quot;#gradient-1&quot;); paint-order: fill;"/>
</svg>